<?xml version="1.0" encoding="UTF-8"?>
<svg height="16px" viewBox="0 0 16 16" width="16px" xmlns="http://www.w3.org/2000/svg">
    <path d="m 4.78125 2.671875 c -0.171875 0 -0.3125 0.140625 -0.3125 0.3125 v 2.230469 c 0 0.171875 0.140625 0.3125 0.3125 0.3125 h 5.320312 v -1.121094 c 0 -0.171875 0.132813 -0.308594 0.304688 -0.308594 h 1.125 v -1.113281 c 0 -0.171875 -0.140625 -0.3125 -0.3125 -0.3125 z m 0 0"/>
    <path d="m 2.5 3.5 c -0.832031 0 -1.5 0.667969 -1.5 1.5 v 6 c 0 0.832031 0.667969 1.5 1.5 1.5 h 11 c 0.832031 0 1.5 -0.667969 1.5 -1.5 v -6 c 0 -0.832031 -0.667969 -1.5 -1.5 -1.5 z m 7.90625 0.597656 h 3.679688 c 0.167968 0 0.304687 0.136719 0.304687 0.308594 v 1.3125 c 0 0.167969 -0.136719 0.300781 -0.304687 0.300781 h -3.679688 c -0.171875 0 -0.304688 -0.132812 -0.304688 -0.300781 v -1.3125 c 0 -0.171875 0.132813 -0.308594 0.304688 -0.308594 z m -2.40625 1.429688 c 1.367188 0 2.472656 1.105468 2.476562 2.472656 c -0.003906 1.367188 -1.109374 2.472656 -2.476562 2.472656 s -2.472656 -1.105468 -2.476562 -2.472656 c 0.003906 -1.367188 1.109374 -2.472656 2.476562 -2.472656 z m 0 0"/>
</svg>
