<?xml version="1.0" encoding="UTF-8"?>
<svg height="128px" viewBox="0 0 128 128" width="128px" xmlns="http://www.w3.org/2000/svg" xmlns:xlink="http://www.w3.org/1999/xlink">
    <linearGradient id="a" gradientTransform="matrix(0.346908 0 0 0.258818 8.494413 33.177422)" gradientUnits="userSpaceOnUse" x1="0" x2="320" y1="160" y2="160">
        <stop offset="0" stop-color="#5c5eee"/>
        <stop offset="0.035533" stop-color="#7a7bf1"/>
        <stop offset="0.192893" stop-color="#686aee"/>
        <stop offset="0.829949" stop-color="#686aee"/>
        <stop offset="0.956853" stop-color="#7a7bf1"/>
        <stop offset="1" stop-color="#5c5eee"/>
    </linearGradient>
    <linearGradient id="b" gradientUnits="userSpaceOnUse" x1="39.812378" x2="88.187378" y1="72.000092" y2="72.000092">
        <stop offset="0" stop-color="#4f4f4f"/>
        <stop offset="0.5" stop-color="#5e5e5e"/>
        <stop offset="1" stop-color="#4f4f4f"/>
    </linearGradient>
    <radialGradient id="c" cx="71.999733" cy="86.058952" gradientTransform="matrix(1 0 0 0.963528 -8 -12.861238)" gradientUnits="userSpaceOnUse" r="17.740816">
        <stop offset="0" stop-color="#6b6ea8"/>
        <stop offset="1" stop-color="#4f4f6f"/>
    </radialGradient>
    <path d="m 45.8125 24.875 h 36.375 c 1.378906 0 2.5 1.148438 2.5 2.5625 v 1.125 c 0 1.417969 -1.121094 2.5625 -2.5 2.5625 h -36.375 c -1.382812 0 -2.5 -1.144531 -2.5 -2.5625 v -1.125 c 0 -1.414062 1.117188 -2.5625 2.5 -2.5625 z m 0 0" fill="#505050"/>
    <path d="m 20.269531 33.175781 h 87.460938 c 6.523437 0 11.773437 3.917969 11.773437 8.785157 v 65.253906 c 0 4.867187 -5.25 8.785156 -11.773437 8.785156 h -87.460938 c -6.523437 0 -11.773437 -3.917969 -11.773437 -8.785156 v -65.253906 c 0 -4.867188 5.25 -8.785157 11.773437 -8.785157 z m 0 0" fill="url(#a)"/>
    <path d="m 20.269531 28 h 87.460938 c 6.523437 0 11.773437 3.917969 11.773437 8.785156 v 65.253906 c 0 4.867188 -5.25 8.785157 -11.773437 8.785157 h -87.460938 c -6.523437 0 -11.773437 -3.917969 -11.773437 -8.785157 v -65.253906 c 0 -4.867187 5.25 -8.785156 11.773437 -8.785156 z m 0 0" fill="#5c5eee"/>
    <path d="m 89.132812 36.125 h 17.734376 c 0.625 0 1.132812 0.484375 1.132812 1.082031 v 7.585938 c 0 0.597656 -0.507812 1.082031 -1.132812 1.082031 h -17.734376 c -0.625 0 -1.132812 -0.484375 -1.132812 -1.082031 v -7.585938 c 0 -0.597656 0.507812 -1.082031 1.132812 -1.082031 z m 0 0" fill="#999cff"/>
    <path d="m 89.132812 38.382812 h 17.734376 c 0.625 0 1.132812 0.484376 1.132812 1.085938 v 7.582031 c 0 0.601563 -0.507812 1.082031 -1.132812 1.082031 h -17.734376 c -0.625 0 -1.132812 -0.480468 -1.132812 -1.082031 v -7.582031 c 0 -0.601562 0.507812 -1.085938 1.132812 -1.085938 z m 0 0" fill="#edeeff"/>
    <path d="m 88.1875 72 c 0 13.359375 -10.828125 24.1875 -24.1875 24.1875 s -24.1875 -10.828125 -24.1875 -24.1875 s 10.828125 -24.1875 24.1875 -24.1875 s 24.1875 10.828125 24.1875 24.1875 z m 0 0" fill="url(#b)"/>
    <path d="m 88.1875 69.410156 c 0 13.359375 -10.828125 24.1875 -24.1875 24.1875 s -24.1875 -10.828125 -24.1875 -24.1875 c 0 -13.355468 10.828125 -24.1875 24.1875 -24.1875 s 24.1875 10.832032 24.1875 24.1875 z m 0 0" fill="#444444"/>
    <path d="m 81.742188 69.410156 c 0 9.800782 -7.945313 17.742188 -17.742188 17.742188 s -17.742188 -7.941406 -17.742188 -17.742188 c 0 -9.796875 7.945313 -17.738281 17.742188 -17.738281 s 17.742188 7.941406 17.742188 17.738281 z m 0 0" fill="#565656"/>
    <path d="m 81.742188 70.058594 c 0 9.441406 -7.945313 17.09375 -17.742188 17.09375 s -17.742188 -7.652344 -17.742188 -17.09375 s 7.945313 -17.09375 17.742188 -17.09375 s 17.742188 7.652344 17.742188 17.09375 z m 0 0" fill="url(#c)"/>
</svg>
